<mxfile host="app.diagrams.net" modified="2022-09-28T06:53:26.856Z" agent="5.0 (Windows NT 10.0; Win64; x64) AppleWebKit/537.36 (KHTML, like Gecko) Chrome/105.0.0.0 Safari/537.36" etag="cTO3gG9E8AA213JtPxZb" version="20.3.0" type="github">
  <diagram id="SynAueD6y7GTD-1h7BKn" name="Page-1">
    <mxGraphModel dx="1278" dy="571" grid="1" gridSize="10" guides="1" tooltips="1" connect="1" arrows="1" fold="1" page="1" pageScale="1" pageWidth="850" pageHeight="1100" math="0" shadow="0">
      <root>
        <mxCell id="0" />
        <mxCell id="1" parent="0" />
        <mxCell id="jCLmEbUyRfnfx5UiK-1H-6" value="start" style="rounded=0;whiteSpace=wrap;html=1;" vertex="1" parent="1">
          <mxGeometry x="240" y="40" width="120" height="60" as="geometry" />
        </mxCell>
        <mxCell id="jCLmEbUyRfnfx5UiK-1H-10" value="" style="edgeStyle=orthogonalEdgeStyle;rounded=0;orthogonalLoop=1;jettySize=auto;html=1;exitX=0.5;exitY=1;exitDx=0;exitDy=0;" edge="1" parent="1" source="jCLmEbUyRfnfx5UiK-1H-6" target="jCLmEbUyRfnfx5UiK-1H-9">
          <mxGeometry relative="1" as="geometry">
            <mxPoint x="100" y="240" as="sourcePoint" />
          </mxGeometry>
        </mxCell>
        <mxCell id="jCLmEbUyRfnfx5UiK-1H-12" value="" style="edgeStyle=orthogonalEdgeStyle;rounded=0;orthogonalLoop=1;jettySize=auto;html=1;" edge="1" parent="1" source="jCLmEbUyRfnfx5UiK-1H-9" target="jCLmEbUyRfnfx5UiK-1H-11">
          <mxGeometry relative="1" as="geometry" />
        </mxCell>
        <mxCell id="jCLmEbUyRfnfx5UiK-1H-15" value="" style="edgeStyle=orthogonalEdgeStyle;rounded=0;orthogonalLoop=1;jettySize=auto;html=1;" edge="1" parent="1" source="jCLmEbUyRfnfx5UiK-1H-9" target="jCLmEbUyRfnfx5UiK-1H-14">
          <mxGeometry relative="1" as="geometry" />
        </mxCell>
        <mxCell id="jCLmEbUyRfnfx5UiK-1H-9" value="If Temperature&amp;lt;10" style="rhombus;whiteSpace=wrap;html=1;rounded=0;" vertex="1" parent="1">
          <mxGeometry x="230" y="180" width="140" height="80" as="geometry" />
        </mxCell>
        <mxCell id="jCLmEbUyRfnfx5UiK-1H-11" value="Turn on boiler" style="whiteSpace=wrap;html=1;rounded=0;" vertex="1" parent="1">
          <mxGeometry x="480" y="190" width="120" height="60" as="geometry" />
        </mxCell>
        <mxCell id="jCLmEbUyRfnfx5UiK-1H-13" value="Yes" style="text;html=1;align=center;verticalAlign=middle;resizable=0;points=[];autosize=1;strokeColor=none;fillColor=none;" vertex="1" parent="1">
          <mxGeometry x="400" y="190" width="40" height="30" as="geometry" />
        </mxCell>
        <mxCell id="jCLmEbUyRfnfx5UiK-1H-22" value="" style="edgeStyle=orthogonalEdgeStyle;rounded=0;orthogonalLoop=1;jettySize=auto;html=1;" edge="1" parent="1" source="jCLmEbUyRfnfx5UiK-1H-14" target="jCLmEbUyRfnfx5UiK-1H-21">
          <mxGeometry relative="1" as="geometry" />
        </mxCell>
        <mxCell id="jCLmEbUyRfnfx5UiK-1H-37" value="" style="edgeStyle=orthogonalEdgeStyle;rounded=0;orthogonalLoop=1;jettySize=auto;html=1;" edge="1" parent="1" source="jCLmEbUyRfnfx5UiK-1H-14" target="jCLmEbUyRfnfx5UiK-1H-36">
          <mxGeometry relative="1" as="geometry" />
        </mxCell>
        <mxCell id="jCLmEbUyRfnfx5UiK-1H-14" value="If Day= No Sunday/Saturday" style="rhombus;whiteSpace=wrap;html=1;rounded=0;" vertex="1" parent="1">
          <mxGeometry x="230" y="330" width="140" height="80" as="geometry" />
        </mxCell>
        <mxCell id="jCLmEbUyRfnfx5UiK-1H-18" value="No" style="text;html=1;align=center;verticalAlign=middle;resizable=0;points=[];autosize=1;strokeColor=none;fillColor=none;" vertex="1" parent="1">
          <mxGeometry x="260" y="280" width="40" height="30" as="geometry" />
        </mxCell>
        <mxCell id="jCLmEbUyRfnfx5UiK-1H-25" value="" style="edgeStyle=orthogonalEdgeStyle;rounded=0;orthogonalLoop=1;jettySize=auto;html=1;" edge="1" parent="1" source="jCLmEbUyRfnfx5UiK-1H-21" target="jCLmEbUyRfnfx5UiK-1H-24">
          <mxGeometry relative="1" as="geometry" />
        </mxCell>
        <mxCell id="jCLmEbUyRfnfx5UiK-1H-21" value="If Time&amp;gt; 8:00 and&lt;br&gt;Time&amp;lt;23:00" style="rhombus;whiteSpace=wrap;html=1;rounded=0;" vertex="1" parent="1">
          <mxGeometry x="230" y="490" width="140" height="80" as="geometry" />
        </mxCell>
        <mxCell id="jCLmEbUyRfnfx5UiK-1H-23" value="Yes" style="text;html=1;align=center;verticalAlign=middle;resizable=0;points=[];autosize=1;strokeColor=none;fillColor=none;" vertex="1" parent="1">
          <mxGeometry x="290" y="445" width="40" height="30" as="geometry" />
        </mxCell>
        <mxCell id="jCLmEbUyRfnfx5UiK-1H-27" value="" style="edgeStyle=orthogonalEdgeStyle;rounded=0;orthogonalLoop=1;jettySize=auto;html=1;" edge="1" parent="1" source="jCLmEbUyRfnfx5UiK-1H-24" target="jCLmEbUyRfnfx5UiK-1H-26">
          <mxGeometry relative="1" as="geometry" />
        </mxCell>
        <mxCell id="jCLmEbUyRfnfx5UiK-1H-24" value="If Temperature = 22°C" style="rhombus;whiteSpace=wrap;html=1;rounded=0;" vertex="1" parent="1">
          <mxGeometry x="10" y="490" width="140" height="80" as="geometry" />
        </mxCell>
        <mxCell id="jCLmEbUyRfnfx5UiK-1H-45" style="edgeStyle=orthogonalEdgeStyle;rounded=0;orthogonalLoop=1;jettySize=auto;html=1;exitX=1;exitY=0.5;exitDx=0;exitDy=0;entryX=0;entryY=0.5;entryDx=0;entryDy=0;" edge="1" parent="1" source="jCLmEbUyRfnfx5UiK-1H-26" target="jCLmEbUyRfnfx5UiK-1H-43">
          <mxGeometry relative="1" as="geometry" />
        </mxCell>
        <mxCell id="jCLmEbUyRfnfx5UiK-1H-26" value="If Temperature&lt;br&gt;&amp;lt;22°C" style="rhombus;whiteSpace=wrap;html=1;rounded=0;" vertex="1" parent="1">
          <mxGeometry x="10" y="650" width="140" height="80" as="geometry" />
        </mxCell>
        <mxCell id="jCLmEbUyRfnfx5UiK-1H-30" value="" style="endArrow=none;html=1;rounded=0;" edge="1" parent="1">
          <mxGeometry width="50" height="50" relative="1" as="geometry">
            <mxPoint x="80" y="70" as="sourcePoint" />
            <mxPoint x="240" y="70" as="targetPoint" />
          </mxGeometry>
        </mxCell>
        <mxCell id="jCLmEbUyRfnfx5UiK-1H-31" value="" style="endArrow=classic;html=1;rounded=0;entryX=0.5;entryY=0;entryDx=0;entryDy=0;" edge="1" parent="1" target="jCLmEbUyRfnfx5UiK-1H-24">
          <mxGeometry width="50" height="50" relative="1" as="geometry">
            <mxPoint x="80" y="70" as="sourcePoint" />
            <mxPoint x="110" y="70" as="targetPoint" />
          </mxGeometry>
        </mxCell>
        <mxCell id="jCLmEbUyRfnfx5UiK-1H-32" value="Yes" style="text;html=1;align=center;verticalAlign=middle;resizable=0;points=[];autosize=1;strokeColor=none;fillColor=none;" vertex="1" parent="1">
          <mxGeometry x="80" y="435" width="40" height="30" as="geometry" />
        </mxCell>
        <mxCell id="jCLmEbUyRfnfx5UiK-1H-33" value="No" style="text;html=1;align=center;verticalAlign=middle;resizable=0;points=[];autosize=1;strokeColor=none;fillColor=none;" vertex="1" parent="1">
          <mxGeometry x="70" y="585" width="40" height="30" as="geometry" />
        </mxCell>
        <mxCell id="jCLmEbUyRfnfx5UiK-1H-34" value="" style="endArrow=none;html=1;rounded=0;" edge="1" parent="1">
          <mxGeometry width="50" height="50" relative="1" as="geometry">
            <mxPoint x="539.5" y="190" as="sourcePoint" />
            <mxPoint x="540" y="70" as="targetPoint" />
          </mxGeometry>
        </mxCell>
        <mxCell id="jCLmEbUyRfnfx5UiK-1H-35" value="" style="endArrow=classic;html=1;rounded=0;entryX=1;entryY=0.5;entryDx=0;entryDy=0;" edge="1" parent="1" target="jCLmEbUyRfnfx5UiK-1H-6">
          <mxGeometry width="50" height="50" relative="1" as="geometry">
            <mxPoint x="540" y="70" as="sourcePoint" />
            <mxPoint x="590" y="30" as="targetPoint" />
          </mxGeometry>
        </mxCell>
        <mxCell id="jCLmEbUyRfnfx5UiK-1H-39" value="" style="edgeStyle=orthogonalEdgeStyle;rounded=0;orthogonalLoop=1;jettySize=auto;html=1;" edge="1" parent="1" source="jCLmEbUyRfnfx5UiK-1H-36" target="jCLmEbUyRfnfx5UiK-1H-38">
          <mxGeometry relative="1" as="geometry" />
        </mxCell>
        <mxCell id="jCLmEbUyRfnfx5UiK-1H-36" value="If Time&amp;lt; 6:00 and Time&amp;lt;8:30 or Time&amp;gt; 17:30 and Time &amp;lt; 22:00" style="rhombus;whiteSpace=wrap;html=1;rounded=0;" vertex="1" parent="1">
          <mxGeometry x="450" y="330" width="140" height="80" as="geometry" />
        </mxCell>
        <mxCell id="jCLmEbUyRfnfx5UiK-1H-42" value="" style="edgeStyle=orthogonalEdgeStyle;rounded=0;orthogonalLoop=1;jettySize=auto;html=1;" edge="1" parent="1" source="jCLmEbUyRfnfx5UiK-1H-38" target="jCLmEbUyRfnfx5UiK-1H-41">
          <mxGeometry relative="1" as="geometry" />
        </mxCell>
        <mxCell id="jCLmEbUyRfnfx5UiK-1H-49" style="edgeStyle=orthogonalEdgeStyle;rounded=0;orthogonalLoop=1;jettySize=auto;html=1;exitX=0.5;exitY=1;exitDx=0;exitDy=0;entryX=1;entryY=0.5;entryDx=0;entryDy=0;" edge="1" parent="1" source="jCLmEbUyRfnfx5UiK-1H-38" target="jCLmEbUyRfnfx5UiK-1H-6">
          <mxGeometry relative="1" as="geometry">
            <mxPoint x="640" y="70" as="targetPoint" />
            <Array as="points">
              <mxPoint x="520" y="590" />
              <mxPoint x="640" y="590" />
              <mxPoint x="640" y="70" />
            </Array>
          </mxGeometry>
        </mxCell>
        <mxCell id="jCLmEbUyRfnfx5UiK-1H-38" value="If Temperature = 20°C" style="rhombus;whiteSpace=wrap;html=1;rounded=0;" vertex="1" parent="1">
          <mxGeometry x="450" y="490" width="140" height="80" as="geometry" />
        </mxCell>
        <mxCell id="jCLmEbUyRfnfx5UiK-1H-40" value="No" style="text;html=1;align=center;verticalAlign=middle;resizable=0;points=[];autosize=1;strokeColor=none;fillColor=none;" vertex="1" parent="1">
          <mxGeometry x="385" y="350" width="40" height="30" as="geometry" />
        </mxCell>
        <mxCell id="jCLmEbUyRfnfx5UiK-1H-44" value="" style="edgeStyle=orthogonalEdgeStyle;rounded=0;orthogonalLoop=1;jettySize=auto;html=1;" edge="1" parent="1" source="jCLmEbUyRfnfx5UiK-1H-41" target="jCLmEbUyRfnfx5UiK-1H-43">
          <mxGeometry relative="1" as="geometry" />
        </mxCell>
        <mxCell id="jCLmEbUyRfnfx5UiK-1H-41" value="If&amp;nbsp; Temperature &amp;lt;20°C" style="rhombus;whiteSpace=wrap;html=1;rounded=0;" vertex="1" parent="1">
          <mxGeometry x="670" y="490" width="140" height="80" as="geometry" />
        </mxCell>
        <mxCell id="jCLmEbUyRfnfx5UiK-1H-46" style="edgeStyle=orthogonalEdgeStyle;rounded=0;orthogonalLoop=1;jettySize=auto;html=1;exitX=0.5;exitY=1;exitDx=0;exitDy=0;entryX=1;entryY=0.5;entryDx=0;entryDy=0;" edge="1" parent="1" source="jCLmEbUyRfnfx5UiK-1H-43" target="jCLmEbUyRfnfx5UiK-1H-6">
          <mxGeometry relative="1" as="geometry">
            <mxPoint x="620" y="380" as="targetPoint" />
            <Array as="points">
              <mxPoint x="740" y="740" />
              <mxPoint x="640" y="740" />
              <mxPoint x="640" y="70" />
            </Array>
          </mxGeometry>
        </mxCell>
        <mxCell id="jCLmEbUyRfnfx5UiK-1H-43" value="Turn off boiler" style="whiteSpace=wrap;html=1;rounded=0;" vertex="1" parent="1">
          <mxGeometry x="680" y="660" width="120" height="60" as="geometry" />
        </mxCell>
        <mxCell id="jCLmEbUyRfnfx5UiK-1H-47" value="No" style="text;html=1;align=center;verticalAlign=middle;resizable=0;points=[];autosize=1;strokeColor=none;fillColor=none;" vertex="1" parent="1">
          <mxGeometry x="180" y="510" width="40" height="30" as="geometry" />
        </mxCell>
        <mxCell id="jCLmEbUyRfnfx5UiK-1H-48" value="Yes" style="text;html=1;align=center;verticalAlign=middle;resizable=0;points=[];autosize=1;strokeColor=none;fillColor=none;" vertex="1" parent="1">
          <mxGeometry x="480" y="570" width="40" height="30" as="geometry" />
        </mxCell>
        <mxCell id="jCLmEbUyRfnfx5UiK-1H-50" value="No" style="text;html=1;align=center;verticalAlign=middle;resizable=0;points=[];autosize=1;strokeColor=none;fillColor=none;" vertex="1" parent="1">
          <mxGeometry x="590" y="510" width="40" height="30" as="geometry" />
        </mxCell>
      </root>
    </mxGraphModel>
  </diagram>
</mxfile>
